<?xml version="1.0" encoding="utf-8"?>
<!-- Generator: Adobe Illustrator 17.1.0, SVG Export Plug-In . SVG Version: 6.00 Build 0)  -->
<!DOCTYPE svg PUBLIC "-//W3C//DTD SVG 1.1//EN" "http://www.w3.org/Graphics/SVG/1.1/DTD/svg11.dtd">
<svg version="1.1" id="Слой_1" xmlns="http://www.w3.org/2000/svg" xmlns:xlink="http://www.w3.org/1999/xlink" x="0px" y="0px"
	 viewBox="0 0 545 523.3" enable-background="new 0 0 545 523.3" xml:space="preserve">
<ellipse fill="#D01317" cx="282.5" cy="261.6" rx="262.5" ry="261.6"/>
<ellipse fill="#FFFFFF" cx="283.7" cy="261.9" rx="195.5" ry="195"/>
<path fill="#3E7ABD" d="M143.2,312.8c0,0,18.5,11.9-48.5,11.3s-64.9-3.9-75.9,6.8C7.7,342-0.6,370.3,0,377.4
	c0.6,7.1,27.4,22.6,51.2,2.7s94.6-67.6,97.6-56c3,11.3-16.4,44.6-5.4,49.7c11,5.1,69.1,19.9,68.5,18.8c-0.6-1.2,44.1-35.4,28.9,7.7
	c-15.5,43.2-27.7,107.2-7.4,63.4s3-60.4,17.9-64c14.9-3.6,6.5-11.9,17.3-11c11,0.9-3.6,19.3,2.1,23.2c5.4,3.9,9.5-6,11.9-19.6
	c2.4-13.7,11.3-25.6,24.4-14.9c12.8,10.7-8,50,5.4,53.9c13.4,3.9,15.5,5.4,27.4-6.8c11.9-12.2-29.8-38.1-14.9-55.7
	c14.6-17.3,25.9-45.2,99.7-38.4c0.9,0,1.5,0.3,2.4,0.3c5.1,0.6,24.4,19.3,23.8,22.3c-0.6,3-5.4,49.7,14.3,60.1
	c19.9,10.4,60.4,0.9,63.1-20.5c2.7-21.4,3.9-35.1-17.9-42.6c-21.7-7.4-53.6,0-61.9-9.8c-8.3-9.8-41.1-21.7-40.2-27.4
	c0.9-5.4,3.9-22.3,13.4-26.2s-8-36.6,3.6-43.8c11.3-6.8,15.5-15.8,21.4-17.3c6-1.5,25.9,17.9,37.8,11.3
	c11.9-6.5,24.4-26.8,21.4-33.6c-3-6.8-22.3-17-26.2-12.8c-3.9,3.9-35.7,31.3-43.8,26.8c-8-4.5-13.4-3-10.4-17.9s46.7-17.9,40.2-30.7
	c-6.5-12.8-97.6,16.4-100.3,0s27.1-31.8,25.9-48.5c-0.9-17-9.5-34.2-17.3-15.8c-8,18.5-6.8,46.1-18.8,41.7
	c-11.9-4.5-14.3,3.6-28.3-6.5c-14-9.8-22.3-5.1-6.5-35.1c15.8-30.4,21.4-29.2,17-47.6s-18.5-9.5-23.8-11
	c-5.4-1.5-33.3,0.6-19.9,63.4s-23.2,47.6-40.2,24.7S218.5,71.1,222,66.4c3.6-4.8-9.8-12.8-28.9-9.5c-18.8,3.6-24.4,49.7,6.8,50
	c31.3,0.6,26.8,53.6,26.8,53.6s14.9,8-21.4,27.7s-60.1,31.3-30.4,88.7s-25.9-8.3-51.5-0.6c-25.9,8-47.6,27.4-5.1,24.4
	S143.2,312.8,143.2,312.8z"/>
<rect x="65.2" y="238.2" transform="matrix(-0.7925 0.6099 -0.6099 -0.7925 658.9457 299.7432)" fill="#D01317" width="426.5" height="47.6"/>
<text transform="matrix(1 0 0 1 171.6971 456.8629)" font-family="'MyriadPro-Regular'" font-size="142.8672">H</text>
<text transform="matrix(1 0 0 1 264.8581 456.8629)" font-family="'MyriadPro-Regular'" font-size="71.4336">2</text>
<text transform="matrix(1 0 0 1 301.4692 456.8629)" font-family="'MyriadPro-Regular'" font-size="142.8672">O</text>
</svg>
